<?xml version="1.0" encoding="utf-8"?>
<!-- Generator: Adobe Illustrator 27.5.0, SVG Export Plug-In . SVG Version: 6.00 Build 0)  -->
<svg version="1.1" xmlns="http://www.w3.org/2000/svg" xmlns:xlink="http://www.w3.org/1999/xlink" x="0px" y="0px"
	 viewBox="0 0 500 500" style="enable-background:new 0 0 500 500;" xml:space="preserve">
<g id="BACKGROUND">
	<rect style="fill:#F7F7F7;" width="500" height="500"/>
</g>
<g id="OBJECTS">
	<g>
		<path style="fill:#F79517;" d="M116.181,186.051l7.175-26.633c1.38-5.107,4.554-7.59,9.384-7.59h17.801l3.726-13.662h-21.941
			c-11.315,0-18.078,4.416-20.561,13.386l-9.246,34.499h-8.555l-3.451,13.109h8.418l-11.316,42.364h13.799l11.316-42.364h20.562
			l3.449-13.109H116.181z"/>
		<polygon style="fill:#F79517;" points="163.653,138.167 136.054,241.525 149.853,241.525 177.452,138.167 		"/>
		<polygon style="fill:#F79517;" points="224.233,151.276 227.684,138.167 186.009,138.167 182.559,151.276 196.496,151.276 
			172.347,241.525 186.146,241.525 210.296,151.276 		"/>
		<path style="fill:#F79517;" d="M251.007,136.787c-11.04,0-18.216,4.83-20.7,14.213l-24.287,90.525h13.8l22.907-85.281
			c0.966-3.864,3.311-5.796,7.036-5.796c5.936,0,8.006,2.622,6.624,7.728l-22.354,83.349h13.799l21.943-82.106
			C273.775,144.515,267.29,136.787,251.007,136.787z"/>
		<path style="fill:#F79517;" d="M297.927,159.419c1.38-5.107,4.417-7.59,9.245-7.59h17.802l3.727-13.662h-21.941
			c-11.314,0-18.077,4.416-20.56,13.386l-7.728,29.117h-8.557l-3.45,13.11h8.418l-6.621,24.838
			c-4.143,15.318,1.653,22.907,17.109,22.907h15.73l3.453-13.109h-16.425c-5.657,0-7.728-3.036-6.21-8.969l6.9-25.667h20.285
			l3.452-13.11H292.27L297.927,159.419z"/>
		<path style="fill:#F79517;" d="M352.3,183.429l-6.21-3.173c-4.278-2.208-5.935-5.521-4.691-10.074l3.727-13.938
			c1.103-3.588,3.861-5.796,7.587-5.796c4.831,0,7.04,2.898,5.935,7.728l-1.654,6.762h13.798l1.382-5.52
			c3.586-14.214-3.45-22.632-18.769-22.632c-10.625,0-18.215,5.244-20.698,14.213l-5.243,19.733
			c-2.625,9.798,0.412,16.697,8.555,20.7l6.07,3.035c3.865,2.208,5.384,5.659,4.003,10.764l-4.691,18.216
			c-1.106,3.864-3.727,5.796-7.728,5.796c-5.104,0-7.175-2.622-5.933-7.729l2.347-9.66h-13.802l-2.07,8.418
			c-3.586,14.904,2.762,22.631,18.769,22.631c11.178,0,18.628-5.795,21.528-16.973l5.52-20.7
			C362.788,194.745,360.165,187.706,352.3,183.429z"/>
		<path style="fill:#F79517;" d="M404.05,136.787c-10.625,0-18.215,5.244-20.701,14.213l-5.242,19.733
			c-2.621,9.798,0.414,16.697,8.556,20.7l6.071,3.035c3.865,2.208,5.384,5.659,4.002,10.764l-4.692,18.216
			c-1.105,3.864-3.723,5.796-7.728,5.796c-5.104,0-7.174-2.622-5.932-7.729l2.345-9.66h-13.8l-2.07,8.418
			c-3.586,14.904,2.76,22.631,18.767,22.631c11.179,0,18.63-5.795,21.528-16.973l5.52-20.7c2.761-10.487,0.139-17.525-7.727-21.803
			l-6.211-3.173c-4.277-2.208-5.934-5.521-4.692-10.074l3.726-13.938c1.106-3.588,3.864-5.796,7.592-5.796
			c4.828,0,7.036,2.898,5.933,7.728l-1.654,6.762h13.798l1.382-5.52C426.404,145.205,419.366,136.787,404.05,136.787z"/>
	</g>
	<g>
		<g>
			<path style="fill:#38383A;" d="M205.4,260.098c-9.92,0-16.288,4.286-18.493,12.614l-16.411,61.478
				c-3.551,13.226,2.205,20.085,16.778,20.085c9.92,0,16.165-4.286,18.37-12.614l10.165-37.842h-18.737l-3.062,11.634h6.369
				l-5.878,21.555c-0.857,3.429-3.184,5.144-6.613,5.144c-4.654,0-6.613-2.327-5.389-6.858l15.431-57.927
				c0.857-3.429,3.307-5.143,6.858-5.143c4.531,0,6.246,2.327,5.266,6.858l-1.347,6.001h12.124l1.102-4.899
				C224.872,266.955,219.239,260.098,205.4,260.098z"/>
			<path style="fill:#38383A;" d="M273.247,261.322h-12.246l-9.797,36.005c-0.857,3.43-3.185,5.144-6.492,5.144
				c-4.898,0-6.735-2.327-5.511-6.858l9.308-34.29h-12.124l-9.185,33.188c-2.816,9.92-0.123,16.288,7.593,18.859l-10.532,39.68
				h12.247l10.287-38.577c8.083-0.734,13.472-4.898,15.431-12.491L273.247,261.322z"/>
			<path style="fill:#38383A;" d="M321.255,260.098c-6.123,0-10.777,3.307-13.838,9.797c-0.49-6.49-4.41-9.797-11.635-9.797
				c-7.715,0-12.982,4.286-15.186,12.614l-21.432,80.338h12.246l20.33-76.909c0.611-2.572,2.203-3.919,4.652-3.919
				c3.063,0,4.043,2.327,2.818,6.858l-19.719,73.97h12.248l20.574-76.909c0.611-2.572,2.203-3.919,4.654-3.919
				c2.938,0,3.795,2.327,2.57,6.858l-19.717,73.97h12.246l19.35-72.868C334.972,266.955,331.419,260.098,321.255,260.098z"/>
		</g>
		<g>
			<g>
				<rect x="87.605" y="255.943" style="fill:#38383A;" width="22.594" height="98.742"/>
				<polygon style="fill:#38383A;" points="165.311,292.762 136.238,292.762 136.238,255.943 113.645,255.943 113.645,354.685 
					136.238,354.685 136.238,317.866 158.42,317.866 				"/>
			</g>
			<circle style="fill:#38383A;" cx="86.749" cy="302.46" r="12.854"/>
		</g>
		<g>
			<g>
				<rect x="390.915" y="255.943" style="fill:#38383A;" width="22.594" height="98.742"/>
				<polygon style="fill:#38383A;" points="364.874,255.943 364.874,292.762 341.47,292.762 334.579,317.866 364.874,317.866 
					364.874,354.685 387.468,354.685 387.468,255.943 				"/>
			</g>
			<path style="fill:#38383A;" d="M426.102,302.46c0,7.1-5.754,12.855-12.853,12.855c-7.1,0-12.855-5.755-12.855-12.855
				c0-7.1,5.756-12.854,12.855-12.854C420.349,289.605,426.102,295.36,426.102,302.46z"/>
		</g>
	</g>
</g>
<g id="DESIGNED_BY_FREEPIK">
	<g>
		<g id="XMLID_457_">
			<g id="XMLID_486_">
				<g id="XMLID_505_">
					<path id="XMLID_513_" style="fill:#1D262D;" d="M257.198,473.416c-0.433,0.443-0.804,0.932-1.108,1.453l-0.465-0.241
						c-0.067-0.297-0.35-0.502-0.659-0.466c-0.331,0.039-0.567,0.339-0.529,0.67c0.039,0.331,0.339,0.567,0.67,0.528
						c0.066-0.007,0.127-0.025,0.184-0.052l0.451,0.234c-0.251,0.554-0.433,1.139-0.539,1.743l0.747,0.132
						c0.229-1.306,0.85-2.507,1.792-3.473L257.198,473.416z"/>
					<path id="XMLID_512_" style="fill:#1D262D;" d="M262.685,471.114c-0.171,0-0.341,0.006-0.509,0.017l-0.074-0.626
						c0.188-0.149,0.296-0.389,0.266-0.645c-0.046-0.393-0.402-0.674-0.795-0.628c-0.393,0.046-0.675,0.402-0.628,0.796
						c0.03,0.254,0.19,0.461,0.404,0.564l0.073,0.624c-0.714,0.116-1.402,0.332-2.06,0.646l0.327,0.685
						c0.935-0.447,1.941-0.674,2.995-0.674c0.497,0,0.993,0.053,1.476,0.158l0.16-0.741
						C263.786,471.173,263.236,471.114,262.685,471.114z"/>
					<path id="XMLID_511_" style="fill:#1D262D;" d="M269.288,473.661c0.331-0.04,0.566-0.341,0.525-0.672
						c-0.04-0.331-0.341-0.566-0.672-0.525c-0.31,0.038-0.535,0.304-0.53,0.608l-0.416,0.363c-0.418-0.43-0.89-0.813-1.407-1.14
						l-0.404,0.642c1.135,0.715,2.021,1.727,2.564,2.925l0.69-0.313c-0.251-0.554-0.567-1.071-0.942-1.545l0.402-0.351
						C269.159,473.666,269.223,473.67,269.288,473.661z"/>
					<path id="XMLID_510_" style="fill:#1D262D;" d="M262.139,481.322c-0.386,0.023-0.775,0.035-1.157,0.035
						c-0.88,0-1.733-0.06-2.478-0.18c-0.391-0.061-0.846-0.154-1.271-0.292c1.047,1.861,3.069,3.125,5.389,3.125
						c2.855,0,5.263-1.916,5.949-4.503c-0.682,0.449-1.505,0.825-2.458,1.122C264.933,480.998,263.558,481.237,262.139,481.322z"/>
					<path id="XMLID_506_" style="fill:#1D262D;" d="M262.685,472.631c-3.351,0-6.079,2.666-6.079,5.943
						c0,0.425,0.046,0.849,0.137,1.261c0.674,0.483,2.706,0.891,5.348,0.731c2.88-0.174,5.297-0.958,6.672-2.159
						c-0.005-0.194-0.021-0.39-0.045-0.581C268.338,474.864,265.744,472.631,262.685,472.631z M260.526,479.146
						c-1.02,0-1.85-0.83-1.85-1.85c0-1.021,0.83-1.851,1.85-1.851c1.02,0,1.85,0.83,1.85,1.851
						C262.376,478.315,261.546,479.146,260.526,479.146z M265.264,478.237c-0.75,0-1.36-0.61-1.36-1.36s0.61-1.36,1.36-1.36
						s1.36,0.61,1.36,1.36S266.014,478.237,265.264,478.237z"/>
				</g>
				<path id="XMLID_503_" style="fill:#1D262D;" d="M278.689,474.498c-0.295-0.116-0.806-0.309-1.383-0.238
					c-0.551,0.069-0.844,0.341-0.844,1.007v0.866h2.228v1.717h-2.228v5.455h-1.932v-5.455h-1.339v-1.717h1.339v-0.889
					c0-1.68,0.896-2.782,2.568-2.782c0.643,0,1.157,0.121,1.59,0.308V474.498z"/>
				<path id="XMLID_501_" style="fill:#1D262D;" d="M283.392,477.829c-0.177-0.029-0.357-0.046-0.525-0.046
					c-0.895,0-1.51,0.548-1.51,1.613v3.908h-1.933v-7.172h1.873v0.784c0.451-0.673,1.14-0.977,2.021-0.977
					c0.414,0,0.848,0.128,1.095,0.337L283.392,477.829z"/>
				<path id="XMLID_498_" style="fill:#1D262D;" d="M291.06,479.708c0,0.222-0.016,0.488-0.037,0.651h-5.085
					c0.207,1.036,0.933,1.487,1.843,1.487c0.622,0,1.295-0.252,1.813-0.689l1.133,1.243c-0.815,0.748-1.851,1.089-3.057,1.089
					c-2.198,0-3.724-1.496-3.724-3.753c0-2.258,1.48-3.797,3.627-3.797C289.638,475.94,291.052,477.473,291.06,479.708z
					 M285.945,479.042h3.175c-0.178-0.918-0.732-1.436-1.561-1.436C286.648,477.605,286.115,478.153,285.945,479.042z"/>
				<path id="XMLID_495_" style="fill:#1D262D;" d="M298.713,479.708c0,0.222-0.016,0.488-0.037,0.651h-5.085
					c0.207,1.036,0.933,1.487,1.843,1.487c0.622,0,1.296-0.252,1.814-0.689l1.133,1.243c-0.814,0.748-1.851,1.089-3.058,1.089
					c-2.198,0-3.723-1.496-3.723-3.753c0-2.258,1.48-3.797,3.627-3.797C297.291,475.94,298.705,477.473,298.713,479.708z
					 M293.599,479.042h3.175c-0.178-0.918-0.733-1.436-1.561-1.436C294.302,477.605,293.769,478.153,293.599,479.042z"/>
				<path id="XMLID_492_" style="fill:#1D262D;" d="M307.059,479.715c0,2.154-1.495,3.775-3.472,3.775
					c-0.962,0-1.643-0.378-2.109-0.933v3.708h-1.925v-10.133h1.888v0.792c0.467-0.585,1.154-0.984,2.139-0.984
					C305.563,475.94,307.059,477.561,307.059,479.715z M301.381,479.715c0,1.133,0.748,1.977,1.844,1.977
					c1.14,0,1.85-0.881,1.85-1.977c0-1.095-0.71-1.976-1.85-1.976C302.129,477.739,301.381,478.583,301.381,479.715z"/>
				<path id="XMLID_489_" style="fill:#1D262D;" d="M310.162,473.786c0,0.696-0.541,1.229-1.236,1.229
					c-0.696,0-1.228-0.533-1.228-1.229c0-0.695,0.532-1.243,1.228-1.243C309.621,472.543,310.162,473.091,310.162,473.786z
					 M309.902,483.305h-1.932v-7.172h1.932V483.305z"/>
				<path id="XMLID_487_" style="fill:#1D262D;" d="M313.126,478.686l2.702-2.554h2.368l-3.479,3.375l3.501,3.797h-2.376
					l-2.717-2.901v2.901h-1.932v-10.658h1.932V478.686z"/>
			</g>
			<g id="XMLID_458_">
				<path id="XMLID_483_" style="fill:#1D262D;" d="M181.506,483.24v-1.055c-0.527,0.718-1.391,1.23-2.387,1.23
					c-1.846,0-3.149-1.406-3.149-3.706c0-2.256,1.289-3.721,3.149-3.721c0.952,0,1.816,0.469,2.387,1.245v-3.765h1.1v9.771H181.506z
					 M181.506,481.321v-3.208c-0.395-0.615-1.244-1.143-2.123-1.143c-1.421,0-2.271,1.172-2.271,2.739
					c0,1.567,0.85,2.725,2.271,2.725C180.262,482.435,181.111,481.936,181.506,481.321z"/>
				<path id="XMLID_480_" style="fill:#1D262D;" d="M184.025,479.695c0-2.051,1.465-3.706,3.486-3.706
					c2.139,0,3.398,1.67,3.398,3.794v0.278h-5.727c0.088,1.333,1.025,2.446,2.549,2.446c0.805,0,1.625-0.322,2.182-0.894
					l0.527,0.718c-0.703,0.703-1.654,1.084-2.813,1.084C185.535,483.416,184.025,481.907,184.025,479.695z M187.498,476.897
					c-1.51,0-2.256,1.274-2.314,2.358h4.643C189.812,478.201,189.109,476.897,187.498,476.897z"/>
				<path id="XMLID_478_" style="fill:#1D262D;" d="M191.701,482.303l0.571-0.791c0.469,0.542,1.362,1.011,2.329,1.011
					c1.084,0,1.67-0.513,1.67-1.216c0-1.714-4.38-0.659-4.38-3.281c0-1.099,0.952-2.036,2.636-2.036
					c1.202,0,2.052,0.454,2.623,1.025l-0.514,0.762c-0.424-0.513-1.2-0.894-2.109-0.894c-0.966,0-1.566,0.483-1.566,1.113
					c0,1.553,4.379,0.527,4.379,3.281c0,1.187-0.951,2.139-2.782,2.139C193.4,483.416,192.419,483.065,191.701,482.303z"/>
				<path id="XMLID_475_" style="fill:#1D262D;" d="M198.571,474.422c0-0.41,0.337-0.747,0.731-0.747
					c0.41,0,0.748,0.337,0.748,0.747c0,0.41-0.338,0.732-0.748,0.732C198.908,475.154,198.571,474.832,198.571,474.422z
					 M198.762,483.24v-7.075h1.099v7.075H198.762z"/>
				<path id="XMLID_472_" style="fill:#1D262D;" d="M201.676,485.057l0.557-0.82c0.586,0.703,1.289,0.967,2.3,0.967
					c1.172,0,2.27-0.571,2.27-2.124v-1.011c-0.513,0.718-1.377,1.26-2.373,1.26c-1.846,0-3.149-1.377-3.149-3.662
					c0-2.27,1.289-3.677,3.149-3.677c0.952,0,1.802,0.469,2.373,1.245v-1.069h1.099v6.87c0,2.344-1.641,3.076-3.369,3.076
					C203.331,486.111,202.511,485.876,201.676,485.057z M206.803,481.204v-3.091c-0.381-0.615-1.23-1.143-2.109-1.143
					c-1.421,0-2.27,1.128-2.27,2.695c0,1.553,0.849,2.695,2.27,2.695C205.572,482.361,206.422,481.819,206.803,481.204z"/>
				<path id="XMLID_470_" style="fill:#1D262D;" d="M214.508,483.24v-4.629c0-1.245-0.631-1.641-1.582-1.641
					c-0.865,0-1.686,0.527-2.095,1.099v5.171h-1.099v-7.075h1.099v1.025c0.497-0.586,1.464-1.201,2.519-1.201
					c1.48,0,2.256,0.747,2.256,2.285v4.966H214.508z"/>
				<path id="XMLID_467_" style="fill:#1D262D;" d="M217.026,479.695c0-2.051,1.465-3.706,3.486-3.706
					c2.139,0,3.398,1.67,3.398,3.794v0.278h-5.727c0.088,1.333,1.025,2.446,2.549,2.446c0.806,0,1.626-0.322,2.183-0.894
					l0.527,0.718c-0.703,0.703-1.655,1.084-2.813,1.084C218.535,483.416,217.026,481.907,217.026,479.695z M220.498,476.897
					c-1.509,0-2.256,1.274-2.314,2.358h4.643C222.812,478.201,222.109,476.897,220.498,476.897z"/>
				<path id="XMLID_464_" style="fill:#1D262D;" d="M230.444,483.24v-1.055c-0.527,0.718-1.392,1.23-2.388,1.23
					c-1.846,0-3.149-1.406-3.149-3.706c0-2.256,1.288-3.721,3.149-3.721c0.951,0,1.816,0.469,2.388,1.245v-3.765h1.099v9.771
					H230.444z M230.444,481.321v-3.208c-0.395-0.615-1.245-1.143-2.124-1.143c-1.421,0-2.271,1.172-2.271,2.739
					c0,1.567,0.85,2.725,2.271,2.725C229.199,482.435,230.049,481.936,230.444,481.321z"/>
				<path id="XMLID_461_" style="fill:#1D262D;" d="M236.786,483.24v-9.771h1.099v3.765c0.571-0.776,1.421-1.245,2.388-1.245
					c1.845,0,3.149,1.465,3.149,3.721c0,2.3-1.305,3.706-3.149,3.706c-0.996,0-1.86-0.513-2.388-1.23v1.055H236.786z
					 M239.994,482.435c1.436,0,2.285-1.157,2.285-2.725c0-1.567-0.85-2.739-2.285-2.739c-0.864,0-1.729,0.527-2.109,1.143v3.208
					C238.266,481.936,239.13,482.435,239.994,482.435z"/>
				<path id="XMLID_459_" style="fill:#1D262D;" d="M244.623,485.013c0.16,0.073,0.425,0.117,0.6,0.117
					c0.484,0,0.807-0.161,1.055-0.747l0.469-1.069l-2.959-7.148h1.188l2.357,5.801l2.345-5.801h1.2l-3.545,8.511
					c-0.424,1.024-1.143,1.421-2.08,1.435c-0.234,0-0.6-0.044-0.805-0.103L244.623,485.013z"/>
			</g>
		</g>
	</g>
</g>
</svg>
